/* XPM */
static char * C:\temp\new icons\round 3\ac_48_xpm[] = {
"48 48 2 1",
" 	c None",
".	c #FFAE3F",
"                                                ",
"                                                ",
"                                                ",
"                                                ",
"                                                ",
"                                                ",
"           ..........................           ",
"          ............................          ",
"          ............................          ",
"          ...                      ...          ",
"          ...                      ...          ",
"          ...                      ...          ",
"          ...                      ...          ",
"          ...  ..................  ...          ",
"          ...                      ...          ",
"          ...                      ...          ",
"          ...  ..................  ...          ",
"          ...                      ...          ",
"          ...                      ...          ",
"          ............................          ",
"          ............................          ",
"                                                ",
"                                                ",
"                       ..                       ",
"                       ..                       ",
"                       ..                       ",
"      ....................................      ",
"      .                ..                .      ",
"      .                ..                .      ",
"      .                ..                .      ",
"                                                ",
"                                                ",
"    ....              ....              ....    ",
"  ........          ........          ........  ",
" ..........        ..........        .......... ",
"............      ............      ............",
"............      ............      ............",
"............      ............      ............",
" ..........        ..........        .......... ",
"  ........          ........          ........  ",
"    ....              ....              ....    ",
"                                                ",
"                                                ",
"                                                ",
"                                                ",
"                                                ",
"                                                ",
"                                                "};
